<svg width="475" height="297" viewBox="0 0 475 297" fill="none" xmlns="http://www.w3.org/2000/svg">
<path d="M83.5273 183.357C83.2891 183.119 83.1699 182.523 83.1699 181.57C83.1699 180.458 83.2891 179.902 83.5273 179.902C84.2422 179.902 85.1953 179.783 86.3867 179.545C87.5781 179.227 88.6901 178.87 89.7227 178.473C90.8346 178.076 91.5098 177.639 91.748 177.162C92.304 176.288 92.582 172.555 92.582 165.963V120.928C92.582 118.624 92.5026 116.599 92.3438 114.852C92.2643 113.104 92.0658 111.714 91.748 110.682C91.5892 110.205 90.9538 109.768 89.8418 109.371C88.8092 108.974 87.6576 108.656 86.3867 108.418C85.1953 108.18 84.2422 108.061 83.5273 108.061C83.2096 108.061 83.0508 107.584 83.0508 106.631C83.0508 105.598 83.2096 104.923 83.5273 104.605C85.5924 104.685 87.7767 104.764 90.0801 104.844C92.4629 104.844 95.0046 104.844 97.7051 104.844L109.262 104.725C111.565 104.725 113.471 104.725 114.98 104.725C116.49 104.645 117.641 104.605 118.436 104.605C127.093 104.605 134.48 106.393 140.596 109.967C146.712 113.462 151.398 118.108 154.654 123.906C157.911 129.704 159.539 136.059 159.539 142.969C159.539 150.594 157.871 157.504 154.535 163.699C151.279 169.895 146.553 174.779 140.357 178.354C134.242 181.928 126.895 183.596 118.316 183.357L109.857 183.119C107.475 183.04 105.29 183 103.305 183C101.319 182.921 99.5319 182.921 97.9434 183L83.5273 183.357ZM120.223 177.877C138.491 177.877 147.625 166.082 147.625 142.492C147.625 136.456 146.553 130.975 144.408 126.051C142.264 121.126 139.087 117.195 134.877 114.256C130.747 111.317 125.584 109.848 119.389 109.848H118.793C110.215 109.848 105.449 110.483 104.496 111.754C103.464 113.104 102.947 115.606 102.947 119.26V166.439C102.947 169.696 103.543 172.714 104.734 175.494C104.893 175.891 105.568 176.249 106.76 176.566C107.951 176.805 109.381 177.043 111.049 177.281C112.796 177.44 114.504 177.599 116.172 177.758C117.84 177.837 119.19 177.877 120.223 177.877ZM204.979 183.715C199.737 183.715 194.813 182.682 190.206 180.617C185.679 178.552 181.667 175.732 178.173 172.158C174.757 168.584 172.057 164.454 170.071 159.768C168.165 155.002 167.212 149.958 167.212 144.637C167.212 138.997 168.205 133.715 170.19 128.791C172.176 123.787 174.956 119.419 178.53 115.686C182.104 111.873 186.235 108.895 190.921 106.75C195.686 104.605 200.809 103.533 206.29 103.533C211.929 103.533 221.341 105.32 234.526 108.895L235.003 123.668C235.003 124.859 234.169 125.455 232.501 125.455C231.707 125.455 231.19 125.257 230.952 124.859C228.807 113.978 220.706 108.537 206.647 108.537C201.405 108.537 196.679 110.086 192.47 113.184C188.26 116.281 184.924 120.451 182.462 125.693C179.999 130.936 178.768 136.734 178.768 143.088C178.768 147.456 179.523 151.785 181.032 156.074C182.621 160.284 184.765 164.096 187.466 167.512C190.246 170.848 193.502 173.548 197.235 175.613C201.048 177.599 205.138 178.592 209.507 178.592C216.576 178.592 221.738 177.718 224.995 175.971C225.551 175.732 225.829 175.137 225.829 174.184L225.71 164.414V163.58C225.71 158.497 225.392 155.081 224.757 153.334C224.598 152.778 223.923 152.341 222.731 152.023C221.54 151.626 220.269 151.309 218.919 151.07C217.568 150.832 216.457 150.713 215.583 150.713C215.265 150.713 215.106 150.197 215.106 149.164C215.106 148.211 215.265 147.576 215.583 147.258L231.19 147.854L244.057 147.258C244.216 147.893 244.296 148.449 244.296 148.926C244.296 150.117 244.137 150.713 243.819 150.713C243.501 150.713 242.866 150.832 241.913 151.07C241.039 151.309 240.086 151.587 239.054 151.904C238.1 152.222 237.386 152.54 236.909 152.857C236.115 153.413 235.718 156.074 235.718 160.84C235.718 161.634 235.718 162.508 235.718 163.461C235.797 164.335 235.876 165.248 235.956 166.201L236.075 169.418C236.075 171.007 236.353 172.396 236.909 173.588C237.465 174.779 237.743 175.574 237.743 175.971C237.743 176.606 236.75 177.321 234.764 178.115C233.494 178.751 232.421 179.188 231.548 179.426C230.674 179.664 230.078 179.863 229.761 180.021C229.363 180.18 228.49 180.498 227.139 180.975C225.789 181.372 224.677 181.65 223.804 181.809C221.659 182.206 219.673 182.563 217.846 182.881C216.02 183.119 214.113 183.318 212.128 183.477C210.142 183.635 207.759 183.715 204.979 183.715ZM291.29 183.357C290.972 183.04 290.813 182.365 290.813 181.332C290.813 180.379 290.972 179.902 291.29 179.902C292.004 179.902 292.997 179.783 294.268 179.545C295.539 179.307 296.73 178.989 297.842 178.592C298.954 178.195 299.55 177.837 299.629 177.52C300.106 175.613 300.344 173.35 300.344 170.729V127.838C300.344 125.376 300.265 123.469 300.106 122.119C299.947 120.689 299.471 119.975 298.676 119.975C298.12 119.975 297.048 120.411 295.459 121.285C293.95 122.159 292.481 123.033 291.051 123.906C290.575 123.668 290.098 123.231 289.622 122.596C289.145 121.881 288.907 121.325 288.907 120.928C288.907 120.61 288.986 120.372 289.145 120.213C302.568 111.079 309.439 106.512 309.756 106.512H309.995C310.63 106.512 311.107 107.266 311.424 108.775C310.63 111.238 310.233 114.971 310.233 119.975V166.916C310.233 169.219 310.312 171.245 310.471 172.992C310.63 174.74 310.868 176.249 311.186 177.52C311.345 177.837 311.941 178.195 312.973 178.592C314.085 178.989 315.277 179.307 316.547 179.545C317.818 179.783 318.692 179.902 319.168 179.902C319.486 179.902 319.645 180.617 319.645 182.047C319.645 182.841 319.605 183.278 319.526 183.357C315.555 183.199 312.377 183.079 309.995 183C307.612 182.841 305.984 182.762 305.11 182.762C304.474 182.762 303.005 182.841 300.702 183C298.398 183.079 295.261 183.199 291.29 183.357ZM346.695 183.357C346.377 183.04 346.218 182.365 346.218 181.332C346.218 180.379 346.377 179.902 346.695 179.902C347.41 179.902 348.402 179.783 349.673 179.545C350.944 179.307 352.135 178.989 353.247 178.592C354.359 178.195 354.955 177.837 355.035 177.52C355.511 175.613 355.749 173.35 355.749 170.729V127.838C355.749 125.376 355.67 123.469 355.511 122.119C355.352 120.689 354.876 119.975 354.081 119.975C353.525 119.975 352.453 120.411 350.865 121.285C349.356 122.159 347.886 123.033 346.456 123.906C345.98 123.668 345.503 123.231 345.027 122.596C344.55 121.881 344.312 121.325 344.312 120.928C344.312 120.61 344.391 120.372 344.55 120.213C357.973 111.079 364.844 106.512 365.161 106.512H365.4C366.035 106.512 366.512 107.266 366.829 108.775C366.035 111.238 365.638 114.971 365.638 119.975V166.916C365.638 169.219 365.717 171.245 365.876 172.992C366.035 174.74 366.273 176.249 366.591 177.52C366.75 177.837 367.346 178.195 368.378 178.592C369.49 178.989 370.682 179.307 371.953 179.545C373.223 179.783 374.097 179.902 374.574 179.902C374.891 179.902 375.05 180.617 375.05 182.047C375.05 182.841 375.01 183.278 374.931 183.357C370.96 183.199 367.783 183.079 365.4 183C363.017 182.841 361.389 182.762 360.515 182.762C359.88 182.762 358.41 182.841 356.107 183C353.803 183.079 350.666 183.199 346.695 183.357Z" fill="#1A3B48"/>
<path d="M51.4055 223.508C51.3459 222.95 51.0945 222.515 50.6513 222.204C50.2124 221.893 49.6413 221.737 48.9382 221.737C48.4439 221.737 48.0199 221.812 47.6662 221.961C47.3125 222.11 47.0419 222.312 46.8544 222.568C46.6669 222.824 46.571 223.116 46.5668 223.444C46.5668 223.717 46.6286 223.953 46.7521 224.153C46.88 224.354 47.0526 224.524 47.2699 224.665C47.4872 224.801 47.728 224.916 47.9922 225.01C48.2564 225.104 48.5227 225.183 48.7912 225.246L50.0185 225.553C50.5128 225.668 50.9879 225.824 51.4439 226.02C51.9041 226.216 52.3153 226.463 52.6776 226.761C53.044 227.06 53.3338 227.42 53.5469 227.842C53.7599 228.263 53.8665 228.758 53.8665 229.325C53.8665 230.092 53.6705 230.767 53.2784 231.351C52.8864 231.93 52.3196 232.384 51.5781 232.712C50.8409 233.036 49.9482 233.198 48.8999 233.198C47.8814 233.198 46.9972 233.04 46.2472 232.725C45.5014 232.41 44.9176 231.95 44.4957 231.344C44.0781 230.739 43.8523 230.002 43.8182 229.133H46.1513C46.1854 229.589 46.326 229.968 46.5732 230.271C46.8203 230.573 47.142 230.799 47.5384 230.948C47.9389 231.097 48.3864 231.172 48.8807 231.172C49.3963 231.172 49.848 231.095 50.2358 230.942C50.6278 230.784 50.9347 230.567 51.1562 230.29C51.3778 230.009 51.4908 229.68 51.495 229.305C51.4908 228.964 51.3906 228.683 51.1946 228.462C50.9986 228.236 50.7237 228.048 50.37 227.899C50.0206 227.746 49.6115 227.609 49.1428 227.49L47.6534 227.107C46.5753 226.83 45.723 226.41 45.0966 225.847C44.4744 225.281 44.1634 224.528 44.1634 223.591C44.1634 222.82 44.3722 222.144 44.7898 221.565C45.2116 220.985 45.7848 220.536 46.5092 220.216C47.2337 219.892 48.054 219.73 48.9702 219.73C49.8991 219.73 50.7131 219.892 51.4119 220.216C52.1151 220.536 52.6669 220.981 53.0675 221.552C53.468 222.119 53.6747 222.771 53.6875 223.508H51.4055ZM61.5908 233H59.0596L63.6682 219.909H66.5958L71.2108 233H68.6796L65.1831 222.594H65.0809L61.5908 233ZM61.6739 227.867H68.5773V229.772H61.6739V227.867ZM77.0751 219.909H79.9771L83.8635 229.395H84.0169L87.9032 219.909H90.8052V233H88.5296V224.006H88.4082L84.7903 232.962H83.09L79.4721 223.987H79.3507V233H77.0751V219.909ZM97.5276 233V219.909H106.042V221.897H99.899V225.451H105.601V227.439H99.899V231.012H106.093V233H97.5276ZM114.973 219.909V233H112.601V219.909H114.973ZM121.681 233V219.909H130.195V221.897H124.052V225.451H129.754V227.439H124.052V231.012H130.246V233H121.681ZM136.179 221.897V219.909H146.624V221.897H142.577V233H140.225V221.897H136.179ZM165.818 233H161.382V219.909H165.907C167.207 219.909 168.324 220.171 169.257 220.695C170.194 221.215 170.915 221.963 171.417 222.939C171.92 223.915 172.172 225.082 172.172 226.442C172.172 227.805 171.918 228.977 171.411 229.957C170.908 230.937 170.182 231.69 169.231 232.214C168.285 232.738 167.148 233 165.818 233ZM163.753 230.948H165.703C166.615 230.948 167.375 230.782 167.985 230.45C168.594 230.113 169.052 229.612 169.359 228.947C169.666 228.278 169.819 227.443 169.819 226.442C169.819 225.44 169.666 224.609 169.359 223.949C169.052 223.284 168.599 222.788 167.998 222.46C167.401 222.127 166.66 221.961 165.773 221.961H163.753V230.948ZM178.565 233V219.909H183.474C184.48 219.909 185.323 220.084 186.005 220.433C186.691 220.783 187.209 221.273 187.558 221.903C187.912 222.53 188.089 223.261 188.089 224.096C188.089 224.935 187.91 225.664 187.552 226.282C187.198 226.896 186.676 227.371 185.986 227.707C185.296 228.04 184.448 228.206 183.442 228.206H179.946V226.237H183.122C183.71 226.237 184.192 226.156 184.567 225.994C184.942 225.828 185.219 225.587 185.398 225.272C185.581 224.952 185.673 224.56 185.673 224.096C185.673 223.631 185.581 223.235 185.398 222.907C185.215 222.575 184.936 222.323 184.561 222.153C184.186 221.978 183.702 221.891 183.11 221.891H180.936V233H178.565ZM185.328 227.068L188.568 233H185.922L182.739 227.068H185.328ZM206.109 226.455C206.109 227.865 205.845 229.073 205.317 230.079C204.793 231.08 204.077 231.847 203.169 232.38C202.266 232.913 201.241 233.179 200.094 233.179C198.948 233.179 197.921 232.913 197.013 232.38C196.11 231.843 195.394 231.074 194.866 230.072C194.342 229.067 194.08 227.861 194.08 226.455C194.08 225.044 194.342 223.838 194.866 222.837C195.394 221.831 196.11 221.062 197.013 220.529C197.921 219.996 198.948 219.73 200.094 219.73C201.241 219.73 202.266 219.996 203.169 220.529C204.077 221.062 204.793 221.831 205.317 222.837C205.845 223.838 206.109 225.044 206.109 226.455ZM203.725 226.455C203.725 225.462 203.57 224.624 203.258 223.942C202.952 223.256 202.526 222.739 201.98 222.389C201.435 222.036 200.806 221.859 200.094 221.859C199.383 221.859 198.754 222.036 198.209 222.389C197.663 222.739 197.235 223.256 196.924 223.942C196.617 224.624 196.464 225.462 196.464 226.455C196.464 227.447 196.617 228.287 196.924 228.973C197.235 229.655 197.663 230.173 198.209 230.526C198.754 230.876 199.383 231.05 200.094 231.05C200.806 231.05 201.435 230.876 201.98 230.526C202.526 230.173 202.952 229.655 203.258 228.973C203.57 228.287 203.725 227.447 203.725 226.455ZM223.249 219.909V233H221.14L214.971 224.083H214.863V233H212.491V219.909H214.614L220.775 228.832H220.89V219.909H223.249ZM240.731 219.909V233H238.622L232.453 224.083H232.345V233H229.973V219.909H232.095L238.257 228.832H238.372V219.909H240.731ZM249.826 219.909V233H247.455V219.909H249.826ZM267.292 219.909V233H265.183L259.015 224.083H258.906V233H256.534V219.909H258.657L264.818 228.832H264.934V219.909H267.292ZM282.786 224.089C282.68 223.744 282.533 223.435 282.345 223.163C282.162 222.886 281.94 222.649 281.68 222.453C281.425 222.257 281.131 222.11 280.798 222.012C280.466 221.91 280.104 221.859 279.711 221.859C279.008 221.859 278.382 222.036 277.832 222.389C277.283 222.743 276.85 223.263 276.535 223.949C276.224 224.631 276.068 225.462 276.068 226.442C276.068 227.43 276.224 228.268 276.535 228.954C276.846 229.64 277.278 230.162 277.832 230.52C278.386 230.874 279.03 231.05 279.763 231.05C280.427 231.05 281.003 230.923 281.488 230.667C281.979 230.411 282.356 230.049 282.62 229.58C282.884 229.107 283.016 228.553 283.016 227.918L283.553 228.001H279.999V226.148H285.311V227.72C285.311 228.841 285.072 229.81 284.595 230.629C284.118 231.447 283.461 232.077 282.626 232.521C281.791 232.96 280.832 233.179 279.75 233.179C278.544 233.179 277.485 232.908 276.573 232.367C275.665 231.822 274.956 231.048 274.444 230.047C273.937 229.041 273.684 227.848 273.684 226.467C273.684 225.411 273.833 224.467 274.131 223.636C274.434 222.805 274.856 222.099 275.397 221.52C275.938 220.936 276.573 220.493 277.302 220.19C278.03 219.884 278.823 219.73 279.68 219.73C280.404 219.73 281.079 219.837 281.706 220.05C282.332 220.259 282.888 220.557 283.374 220.945C283.864 221.332 284.267 221.793 284.582 222.325C284.898 222.858 285.104 223.446 285.202 224.089H282.786ZM291.744 233V219.909H300.258V221.897H294.116V225.451H299.817V227.439H294.116V231.012H300.309V233H291.744ZM317.575 219.909V233H315.466L309.298 224.083H309.189V233H306.818V219.909H308.94L315.102 228.832H315.217V219.909H317.575ZM331.414 223.508C331.354 222.95 331.103 222.515 330.66 222.204C330.221 221.893 329.65 221.737 328.946 221.737C328.452 221.737 328.028 221.812 327.674 221.961C327.321 222.11 327.05 222.312 326.863 222.568C326.675 222.824 326.579 223.116 326.575 223.444C326.575 223.717 326.637 223.953 326.76 224.153C326.888 224.354 327.061 224.524 327.278 224.665C327.495 224.801 327.736 224.916 328 225.01C328.265 225.104 328.531 225.183 328.799 225.246L330.027 225.553C330.521 225.668 330.996 225.824 331.452 226.02C331.912 226.216 332.324 226.463 332.686 226.761C333.052 227.06 333.342 227.42 333.555 227.842C333.768 228.263 333.875 228.758 333.875 229.325C333.875 230.092 333.679 230.767 333.287 231.351C332.895 231.93 332.328 232.384 331.586 232.712C330.849 233.036 329.956 233.198 328.908 233.198C327.89 233.198 327.005 233.04 326.255 232.725C325.51 232.41 324.926 231.95 324.504 231.344C324.086 230.739 323.861 230.002 323.826 229.133H326.16C326.194 229.589 326.334 229.968 326.581 230.271C326.829 230.573 327.15 230.799 327.547 230.948C327.947 231.097 328.395 231.172 328.889 231.172C329.405 231.172 329.856 231.095 330.244 230.942C330.636 230.784 330.943 230.567 331.165 230.29C331.386 230.009 331.499 229.68 331.503 229.305C331.499 228.964 331.399 228.683 331.203 228.462C331.007 228.236 330.732 228.048 330.378 227.899C330.029 227.746 329.62 227.609 329.151 227.49L327.662 227.107C326.584 226.83 325.731 226.41 325.105 225.847C324.483 225.281 324.172 224.528 324.172 223.591C324.172 222.82 324.38 222.144 324.798 221.565C325.22 220.985 325.793 220.536 326.518 220.216C327.242 219.892 328.062 219.73 328.978 219.73C329.907 219.73 330.721 219.892 331.42 220.216C332.123 220.536 332.675 220.981 333.076 221.552C333.476 222.119 333.683 222.771 333.696 223.508H331.414ZM348.899 224.089C348.792 223.744 348.645 223.435 348.458 223.163C348.275 222.886 348.053 222.649 347.793 222.453C347.537 222.257 347.243 222.11 346.911 222.012C346.579 221.91 346.216 221.859 345.824 221.859C345.121 221.859 344.495 222.036 343.945 222.389C343.395 222.743 342.963 223.263 342.647 223.949C342.336 224.631 342.181 225.462 342.181 226.442C342.181 227.43 342.336 228.268 342.647 228.954C342.958 229.64 343.391 230.162 343.945 230.52C344.499 230.874 345.142 231.05 345.875 231.05C346.54 231.05 347.115 230.923 347.601 230.667C348.091 230.411 348.468 230.049 348.733 229.58C348.997 229.107 349.129 228.553 349.129 227.918L349.666 228.001H346.112V226.148H351.424V227.72C351.424 228.841 351.185 229.81 350.708 230.629C350.23 231.447 349.574 232.077 348.739 232.521C347.904 232.96 346.945 233.179 345.863 233.179C344.657 233.179 343.598 232.908 342.686 232.367C341.778 231.822 341.069 231.048 340.557 230.047C340.05 229.041 339.797 227.848 339.797 226.467C339.797 225.411 339.946 224.467 340.244 223.636C340.547 222.805 340.968 222.099 341.51 221.52C342.051 220.936 342.686 220.493 343.414 220.19C344.143 219.884 344.936 219.73 345.792 219.73C346.517 219.73 347.192 219.837 347.819 220.05C348.445 220.259 349.001 220.557 349.487 220.945C349.977 221.332 350.38 221.793 350.695 222.325C351.01 222.858 351.217 223.446 351.315 224.089H348.899ZM359.134 233H356.602L361.211 219.909H364.139L368.754 233H366.222L362.726 222.594H362.624L359.134 233ZM359.217 227.867H366.12V229.772H359.217V227.867ZM372.461 221.897V219.909H382.905V221.897H378.859V233H376.507V221.897H372.461ZM389.059 233V219.909H397.573V221.897H391.43V225.451H397.132V227.439H391.43V231.012H397.624V233H389.059ZM417.934 219.909V233H415.562V222.217H415.486L412.424 224.173V221.999L415.677 219.909H417.934ZM430.722 219.909V233H428.351V222.217H428.274L425.212 224.173V221.999L428.466 219.909H430.722Z" fill="#1A3B48"/>
<path d="M238 53L193 80" stroke="#1A3B48" stroke-width="3" stroke-linecap="round"/>
<path d="M283.002 79.997L238 53" stroke="#1A3B48" stroke-width="3" stroke-linecap="round"/>
<path d="M254 54C254 53.4477 254.448 53 255 53H267.5C268.052 53 268.5 53.4477 268.5 54V66C268.5 66.5523 268.052 67 267.5 67V67C266.948 67 266.5 66.5523 266.5 66V56C266.5 55.4477 266.052 55 265.5 55H257C256.448 55 256 55.4477 256 56V58C256 58.5523 255.552 59 255 59V59C254.448 59 254 58.5523 254 58V54Z" fill="#1A3B48"/>
</svg>
