<svg width="2439" height="1525" viewBox="0 0 2439 1525" fill="none" xmlns="http://www.w3.org/2000/svg">
<path d="M428.886 940.859C427.663 939.635 427.051 936.577 427.051 931.683C427.051 925.973 427.663 923.118 428.886 923.118C432.557 923.118 437.451 922.506 443.568 921.283C449.686 919.652 455.395 917.816 460.697 915.777C466.407 913.738 469.873 911.495 471.097 909.048C473.952 904.562 475.379 885.394 475.379 851.543V620.302C475.379 608.475 474.971 598.075 474.156 589.103C473.748 580.131 472.728 572.994 471.097 567.692C470.281 565.245 467.019 563.002 461.309 560.963C456.007 558.924 450.094 557.292 443.568 556.069C437.451 554.845 432.557 554.233 428.886 554.233C427.255 554.233 426.439 551.786 426.439 546.892C426.439 541.591 427.255 538.124 428.886 536.493C439.49 536.901 450.705 537.308 462.532 537.716C474.767 537.716 487.818 537.716 501.684 537.716L561.024 537.104C572.851 537.104 582.639 537.104 590.388 537.104C598.137 536.697 604.05 536.493 608.129 536.493C652.582 536.493 690.511 545.669 721.914 564.021C753.317 581.966 777.379 605.824 794.1 635.596C810.822 665.368 819.182 697.994 819.182 733.476C819.182 772.628 810.618 808.109 793.489 839.92C776.767 871.731 752.501 896.813 720.691 915.165C689.287 933.518 651.563 942.082 607.517 940.859L564.083 939.635C551.848 939.227 540.632 939.024 530.437 939.024C520.241 938.616 511.065 938.616 502.908 939.024L428.886 940.859ZM617.305 912.718C711.106 912.718 758.007 852.155 758.007 731.029C758.007 700.034 752.501 671.893 741.49 646.608C730.478 621.322 714.165 601.134 692.55 586.044C671.343 570.955 644.834 563.41 613.023 563.41H609.964C565.918 563.41 541.448 566.672 536.554 573.198C531.252 580.131 528.601 592.978 528.601 611.738V853.99C528.601 870.712 531.66 886.209 537.778 900.483C538.593 902.523 542.06 904.358 548.177 905.989C554.295 907.213 561.636 908.436 570.2 909.66C579.173 910.475 587.941 911.291 596.505 912.107C605.07 912.514 612.003 912.718 617.305 912.718ZM1052.5 942.694C1025.59 942.694 1000.3 937.392 976.646 926.789C953.4 916.185 932.804 901.707 914.86 883.354C897.323 865.002 883.457 843.795 873.261 819.733C863.473 795.263 858.579 769.365 858.579 742.04C858.579 713.084 863.677 685.963 873.872 660.678C884.068 634.984 898.342 612.554 916.695 593.385C935.047 573.809 956.255 558.516 980.317 547.504C1004.79 536.493 1031.09 530.987 1059.23 530.987C1088.19 530.987 1136.52 540.163 1204.22 558.516L1206.66 634.373C1206.66 640.49 1202.38 643.549 1193.82 643.549C1189.74 643.549 1187.09 642.529 1185.86 640.49C1174.85 584.617 1133.25 556.68 1061.07 556.68C1034.15 556.68 1009.88 564.633 988.27 580.539C966.654 596.444 949.525 617.855 936.883 644.772C924.24 671.689 917.918 701.461 917.918 734.088C917.918 756.518 921.793 778.745 929.542 800.768C937.698 822.383 948.71 841.959 962.576 859.496C976.85 876.625 993.571 890.491 1012.74 901.095C1032.32 911.291 1053.32 916.389 1075.75 916.389C1112.05 916.389 1138.56 911.903 1155.28 902.93C1158.13 901.707 1159.56 898.648 1159.56 893.754L1158.95 843.591V839.308C1158.95 813.207 1157.32 795.67 1154.05 786.698C1153.24 783.843 1149.77 781.6 1143.65 779.969C1137.54 777.93 1131.01 776.298 1124.08 775.075C1117.14 773.851 1111.43 773.24 1106.95 773.24C1105.32 773.24 1104.5 770.589 1104.5 765.287C1104.5 760.393 1105.32 757.13 1106.95 755.499L1187.09 758.558L1253.16 755.499C1253.97 758.762 1254.38 761.616 1254.38 764.063C1254.38 770.181 1253.56 773.24 1251.93 773.24C1250.3 773.24 1247.04 773.851 1242.15 775.075C1237.66 776.298 1232.77 777.726 1227.46 779.357C1222.57 780.988 1218.9 782.62 1216.45 784.251C1212.37 787.106 1210.33 800.768 1210.33 825.238C1210.33 829.317 1210.33 833.803 1210.33 838.697C1210.74 843.183 1211.15 847.873 1211.56 852.767L1212.17 869.284C1212.17 877.441 1213.6 884.578 1216.45 890.695C1219.31 896.813 1220.73 900.891 1220.73 902.93C1220.73 906.193 1215.64 909.864 1205.44 913.942C1198.92 917.205 1193.41 919.448 1188.92 920.671C1184.44 921.895 1181.38 922.914 1179.75 923.73C1177.71 924.546 1173.22 926.177 1166.29 928.624C1159.36 930.663 1153.65 932.09 1149.16 932.906C1138.15 934.945 1127.95 936.78 1118.57 938.412C1109.19 939.635 1099.4 940.655 1089.21 941.471C1079.01 942.286 1066.78 942.694 1052.5 942.694ZM1495.68 940.859C1494.05 939.227 1493.23 935.761 1493.23 930.459C1493.23 925.565 1494.05 923.118 1495.68 923.118C1499.35 923.118 1504.45 922.506 1510.97 921.283C1517.5 920.059 1523.62 918.428 1529.32 916.389C1535.03 914.35 1538.09 912.514 1538.5 910.883C1540.95 901.095 1542.17 889.472 1542.17 876.013V655.784C1542.17 643.141 1541.76 633.353 1540.95 626.42C1540.13 619.079 1537.69 615.408 1533.61 615.408C1530.75 615.408 1525.25 617.651 1517.09 622.138C1509.34 626.624 1501.8 631.11 1494.46 635.596C1492.01 634.373 1489.56 632.129 1487.11 628.867C1484.67 625.196 1483.44 622.341 1483.44 620.302C1483.44 618.671 1483.85 617.448 1484.67 616.632C1553.59 569.731 1588.87 546.281 1590.5 546.281H1591.72C1594.99 546.281 1597.43 550.155 1599.06 557.904C1594.99 570.547 1592.95 589.715 1592.95 615.408V856.437C1592.95 868.265 1593.35 878.664 1594.17 887.637C1594.99 896.609 1596.21 904.358 1597.84 910.883C1598.66 912.514 1601.72 914.35 1607.02 916.389C1612.73 918.428 1618.84 920.059 1625.37 921.283C1631.89 922.506 1636.38 923.118 1638.83 923.118C1640.46 923.118 1641.27 926.789 1641.27 934.13C1641.27 938.208 1641.07 940.451 1640.66 940.859C1620.27 940.043 1603.96 939.431 1591.72 939.024C1579.49 938.208 1571.13 937.8 1566.64 937.8C1563.38 937.8 1555.83 938.208 1544.01 939.024C1532.18 939.431 1516.07 940.043 1495.68 940.859ZM1780.17 940.859C1778.54 939.227 1777.72 935.761 1777.72 930.459C1777.72 925.565 1778.54 923.118 1780.17 923.118C1783.84 923.118 1788.93 922.506 1795.46 921.283C1801.99 920.059 1808.1 918.428 1813.81 916.389C1819.52 914.35 1822.58 912.514 1822.99 910.883C1825.44 901.095 1826.66 889.472 1826.66 876.013V655.784C1826.66 643.141 1826.25 633.353 1825.44 626.42C1824.62 619.079 1822.17 615.408 1818.09 615.408C1815.24 615.408 1809.73 617.651 1801.58 622.138C1793.83 626.624 1786.28 631.11 1778.94 635.596C1776.5 634.373 1774.05 632.129 1771.6 628.867C1769.15 625.196 1767.93 622.341 1767.93 620.302C1767.93 618.671 1768.34 617.448 1769.15 616.632C1838.08 569.731 1873.36 546.281 1874.99 546.281H1876.21C1879.47 546.281 1881.92 550.155 1883.55 557.904C1879.47 570.547 1877.43 589.715 1877.43 615.408V856.437C1877.43 868.265 1877.84 878.664 1878.66 887.637C1879.47 896.609 1880.7 904.358 1882.33 910.883C1883.14 912.514 1886.2 914.35 1891.5 916.389C1897.21 918.428 1903.33 920.059 1909.86 921.283C1916.38 922.506 1920.87 923.118 1923.32 923.118C1924.95 923.118 1925.76 926.789 1925.76 934.13C1925.76 938.208 1925.56 940.451 1925.15 940.859C1904.76 940.043 1888.45 939.431 1876.21 939.024C1863.98 938.208 1855.62 937.8 1851.13 937.8C1847.87 937.8 1840.32 938.208 1828.49 939.024C1816.67 939.431 1800.56 940.043 1780.17 940.859Z" fill="#1A3B48"/>
<path d="M263.951 1145.22C263.645 1142.35 262.354 1140.12 260.078 1138.52C257.824 1136.92 254.892 1136.13 251.282 1136.13C248.744 1136.13 246.567 1136.51 244.751 1137.27C242.935 1138.04 241.545 1139.08 240.582 1140.39C239.62 1141.71 239.127 1143.2 239.105 1144.89C239.105 1146.29 239.423 1147.5 240.057 1148.53C240.714 1149.56 241.6 1150.44 242.716 1151.16C243.832 1151.86 245.068 1152.45 246.425 1152.93C247.781 1153.41 249.149 1153.82 250.527 1154.14L256.829 1155.72C259.367 1156.31 261.807 1157.11 264.148 1158.12C266.511 1159.12 268.623 1160.39 270.482 1161.92C272.364 1163.45 273.852 1165.3 274.946 1167.47C276.04 1169.64 276.587 1172.17 276.587 1175.08C276.587 1179.02 275.581 1182.49 273.568 1185.49C271.555 1188.46 268.644 1190.79 264.837 1192.48C261.052 1194.14 256.468 1194.97 251.085 1194.97C245.856 1194.97 241.315 1194.16 237.464 1192.54C233.635 1190.93 230.638 1188.56 228.471 1185.46C226.327 1182.35 225.167 1178.56 224.992 1174.1H236.972C237.147 1176.44 237.869 1178.39 239.138 1179.94C240.407 1181.5 242.059 1182.65 244.094 1183.42C246.151 1184.19 248.449 1184.57 250.987 1184.57C253.634 1184.57 255.954 1184.18 257.945 1183.39C259.958 1182.58 261.533 1181.46 262.671 1180.04C263.809 1178.6 264.389 1176.91 264.411 1174.99C264.389 1173.24 263.874 1171.79 262.868 1170.65C261.861 1169.49 260.45 1168.53 258.634 1167.77C256.84 1166.98 254.739 1166.28 252.332 1165.66L244.685 1163.7C239.149 1162.27 234.773 1160.12 231.557 1157.23C228.362 1154.32 226.765 1150.46 226.765 1145.64C226.765 1141.68 227.837 1138.22 229.981 1135.24C232.147 1132.26 235.09 1129.96 238.81 1128.31C242.53 1126.65 246.742 1125.82 251.446 1125.82C256.216 1125.82 260.395 1126.65 263.984 1128.31C267.594 1129.96 270.428 1132.24 272.485 1135.17C274.541 1138.08 275.603 1141.43 275.668 1145.22H263.951ZM316.249 1193.96H303.252L326.916 1126.74H341.948L365.645 1193.96H352.648L334.695 1140.52H334.169L316.249 1193.96ZM316.676 1167.6H352.123V1177.38H316.676V1167.6ZM395.756 1126.74H410.657L430.612 1175.45H431.4L451.355 1126.74H466.256V1193.96H454.571V1147.78H453.948L435.371 1193.76H426.641L408.064 1147.68H407.44V1193.96H395.756V1126.74ZM500.773 1193.96V1126.74H544.491V1136.95H512.95V1155.19H542.226V1165.4H512.95V1183.75H544.753V1193.96H500.773ZM590.348 1126.74V1193.96H578.171V1126.74H590.348ZM624.791 1193.96V1126.74H668.509V1136.95H636.968V1155.19H666.244V1165.4H636.968V1183.75H668.772V1193.96H624.791ZM699.235 1136.95V1126.74H752.865V1136.95H732.089V1193.96H720.011V1136.95H699.235ZM851.422 1193.96H828.644V1126.74H851.882C858.555 1126.74 864.288 1128.08 869.08 1130.78C873.894 1133.45 877.592 1137.29 880.174 1142.3C882.756 1147.31 884.046 1153.3 884.046 1160.28C884.046 1167.28 882.745 1173.3 880.141 1178.33C877.559 1183.37 873.828 1187.23 868.949 1189.92C864.091 1192.61 858.249 1193.96 851.422 1193.96ZM840.821 1183.42H850.832C855.514 1183.42 859.42 1182.57 862.549 1180.86C865.678 1179.13 868.03 1176.56 869.605 1173.15C871.181 1169.71 871.968 1165.42 871.968 1160.28C871.968 1155.14 871.181 1150.87 869.605 1147.48C868.03 1144.07 865.699 1141.52 862.614 1139.83C859.551 1138.13 855.744 1137.27 851.193 1137.27H840.821V1183.42ZM916.874 1193.96V1126.74H942.08C947.244 1126.74 951.576 1127.64 955.077 1129.43C958.6 1131.22 961.259 1133.74 963.053 1136.98C964.869 1140.2 965.777 1143.95 965.777 1148.24C965.777 1152.55 964.858 1156.29 963.02 1159.46C961.204 1162.61 958.524 1165.05 954.979 1166.78C951.434 1168.49 947.08 1169.34 941.916 1169.34H923.963V1159.23H940.275C943.295 1159.23 945.767 1158.82 947.693 1157.98C949.618 1157.13 951.04 1155.89 951.959 1154.28C952.9 1152.63 953.371 1150.62 953.371 1148.24C953.371 1145.85 952.9 1143.82 951.959 1142.13C951.018 1140.43 949.585 1139.13 947.66 1138.26C945.734 1137.36 943.251 1136.91 940.209 1136.91H929.05V1193.96H916.874ZM951.598 1163.5L968.239 1193.96H954.651L938.306 1163.5H951.598ZM1058.31 1160.35C1058.31 1167.59 1056.95 1173.79 1054.24 1178.96C1051.54 1184.1 1047.87 1188.04 1043.21 1190.77C1038.57 1193.51 1033.31 1194.88 1027.42 1194.88C1021.54 1194.88 1016.26 1193.51 1011.6 1190.77C1006.96 1188.02 1003.29 1184.07 1000.57 1178.92C997.882 1173.76 996.536 1167.57 996.536 1160.35C996.536 1153.1 997.882 1146.91 1000.57 1141.77C1003.29 1136.61 1006.96 1132.66 1011.6 1129.92C1016.26 1127.19 1021.54 1125.82 1027.42 1125.82C1033.31 1125.82 1038.57 1127.19 1043.21 1129.92C1047.87 1132.66 1051.54 1136.61 1054.24 1141.77C1056.95 1146.91 1058.31 1153.1 1058.31 1160.35ZM1046.06 1160.35C1046.06 1155.25 1045.26 1150.95 1043.67 1147.45C1042.09 1143.93 1039.9 1141.27 1037.1 1139.47C1034.3 1137.66 1031.08 1136.75 1027.42 1136.75C1023.77 1136.75 1020.54 1137.66 1017.74 1139.47C1014.94 1141.27 1012.74 1143.93 1011.14 1147.45C1009.57 1150.95 1008.78 1155.25 1008.78 1160.35C1008.78 1165.45 1009.57 1169.76 1011.14 1173.28C1012.74 1176.78 1014.94 1179.44 1017.74 1181.25C1020.54 1183.05 1023.77 1183.95 1027.42 1183.95C1031.08 1183.95 1034.3 1183.05 1037.1 1181.25C1039.9 1179.44 1042.09 1176.78 1043.67 1173.28C1045.26 1169.76 1046.06 1165.45 1046.06 1160.35ZM1146.31 1126.74V1193.96H1135.48L1103.81 1148.17H1103.25V1193.96H1091.08V1126.74H1101.97L1133.61 1172.56H1134.2V1126.74H1146.31ZM1236.08 1126.74V1193.96H1225.25L1193.57 1148.17H1193.02V1193.96H1180.84V1126.74H1191.74L1223.37 1172.56H1223.97V1126.74H1236.08ZM1282.78 1126.74V1193.96H1270.6V1126.74H1282.78ZM1372.46 1126.74V1193.96H1361.63L1329.96 1148.17H1329.4V1193.96H1317.22V1126.74H1328.12L1359.76 1172.56H1360.35V1126.74H1372.46ZM1452.02 1148.2C1451.47 1146.43 1450.71 1144.84 1449.75 1143.44C1448.81 1142.02 1447.67 1140.81 1446.34 1139.8C1445.03 1138.79 1443.52 1138.04 1441.81 1137.54C1440.1 1137.01 1438.24 1136.75 1436.23 1136.75C1432.62 1136.75 1429.4 1137.66 1426.58 1139.47C1423.76 1141.29 1421.54 1143.96 1419.92 1147.48C1418.32 1150.98 1417.52 1155.25 1417.52 1160.28C1417.52 1165.36 1418.32 1169.66 1419.92 1173.18C1421.51 1176.7 1423.74 1179.38 1426.58 1181.22C1429.42 1183.04 1432.73 1183.95 1436.49 1183.95C1439.91 1183.95 1442.86 1183.29 1445.35 1181.98C1447.87 1180.66 1449.81 1178.8 1451.16 1176.4C1452.52 1173.97 1453.2 1171.12 1453.2 1167.86L1455.95 1168.29H1437.71V1158.77H1464.98V1166.85C1464.98 1172.6 1463.76 1177.58 1461.3 1181.78C1458.85 1185.98 1455.48 1189.22 1451.2 1191.49C1446.91 1193.75 1441.98 1194.88 1436.43 1194.88C1430.23 1194.88 1424.8 1193.49 1420.11 1190.71C1415.45 1187.91 1411.81 1183.93 1409.18 1178.79C1406.58 1173.63 1405.28 1167.5 1405.28 1160.41C1405.28 1154.99 1406.04 1150.14 1407.58 1145.87C1409.13 1141.61 1411.3 1137.99 1414.07 1135.01C1416.85 1132.01 1420.11 1129.74 1423.86 1128.18C1427.6 1126.61 1431.67 1125.82 1436.07 1125.82C1439.78 1125.82 1443.25 1126.37 1446.47 1127.46C1449.69 1128.53 1452.54 1130.06 1455.04 1132.06C1457.55 1134.05 1459.62 1136.41 1461.24 1139.15C1462.86 1141.88 1463.92 1144.9 1464.42 1148.2H1452.02ZM1498.01 1193.96V1126.74H1541.73V1136.95H1510.19V1155.19H1539.47V1165.4H1510.19V1183.75H1541.99V1193.96H1498.01ZM1630.65 1126.74V1193.96H1619.82L1588.15 1148.17H1587.59V1193.96H1575.41V1126.74H1586.31L1617.95 1172.56H1618.54V1126.74H1630.65ZM1701.7 1145.22C1701.4 1142.35 1700.11 1140.12 1697.83 1138.52C1695.58 1136.92 1692.65 1136.13 1689.04 1136.13C1686.5 1136.13 1684.32 1136.51 1682.5 1137.27C1680.69 1138.04 1679.3 1139.08 1678.34 1140.39C1677.37 1141.71 1676.88 1143.2 1676.86 1144.89C1676.86 1146.29 1677.18 1147.5 1677.81 1148.53C1678.47 1149.56 1679.35 1150.44 1680.47 1151.16C1681.58 1151.86 1682.82 1152.45 1684.18 1152.93C1685.53 1153.41 1686.9 1153.82 1688.28 1154.14L1694.58 1155.72C1697.12 1156.31 1699.56 1157.11 1701.9 1158.12C1704.26 1159.12 1706.38 1160.39 1708.24 1161.92C1710.12 1163.45 1711.61 1165.3 1712.7 1167.47C1713.79 1169.64 1714.34 1172.17 1714.34 1175.08C1714.34 1179.02 1713.33 1182.49 1711.32 1185.49C1709.31 1188.46 1706.4 1190.79 1702.59 1192.48C1698.8 1194.14 1694.22 1194.97 1688.84 1194.97C1683.61 1194.97 1679.07 1194.16 1675.22 1192.54C1671.39 1190.93 1668.39 1188.56 1666.22 1185.46C1664.08 1182.35 1662.92 1178.56 1662.75 1174.1H1674.73C1674.9 1176.44 1675.62 1178.39 1676.89 1179.94C1678.16 1181.5 1679.81 1182.65 1681.85 1183.42C1683.9 1184.19 1686.2 1184.57 1688.74 1184.57C1691.39 1184.57 1693.71 1184.18 1695.7 1183.39C1697.71 1182.58 1699.29 1181.46 1700.42 1180.04C1701.56 1178.6 1702.14 1176.91 1702.16 1174.99C1702.14 1173.24 1701.63 1171.79 1700.62 1170.65C1699.61 1169.49 1698.2 1168.53 1696.39 1167.77C1694.59 1166.98 1692.49 1166.28 1690.09 1165.66L1682.44 1163.7C1676.9 1162.27 1672.53 1160.12 1669.31 1157.23C1666.12 1154.32 1664.52 1150.46 1664.52 1145.64C1664.52 1141.68 1665.59 1138.22 1667.73 1135.24C1669.9 1132.26 1672.84 1129.96 1676.56 1128.31C1680.28 1126.65 1684.49 1125.82 1689.2 1125.82C1693.97 1125.82 1698.15 1126.65 1701.74 1128.31C1705.35 1129.96 1708.18 1132.24 1710.24 1135.17C1712.29 1138.08 1713.36 1141.43 1713.42 1145.22H1701.7ZM1791.48 1148.2C1790.94 1146.43 1790.18 1144.84 1789.22 1143.44C1788.28 1142.02 1787.14 1140.81 1785.81 1139.8C1784.49 1138.79 1782.98 1138.04 1781.28 1137.54C1779.57 1137.01 1777.71 1136.75 1775.7 1136.75C1772.09 1136.75 1768.87 1137.66 1766.05 1139.47C1763.22 1141.29 1761 1143.96 1759.38 1147.48C1757.79 1150.98 1756.99 1155.25 1756.99 1160.28C1756.99 1165.36 1757.79 1169.66 1759.38 1173.18C1760.98 1176.7 1763.2 1179.38 1766.05 1181.22C1768.89 1183.04 1772.2 1183.95 1775.96 1183.95C1779.37 1183.95 1782.33 1183.29 1784.82 1181.98C1787.34 1180.66 1789.27 1178.8 1790.63 1176.4C1791.99 1173.97 1792.67 1171.12 1792.67 1167.86L1795.42 1168.29H1777.17V1158.77H1804.45V1166.85C1804.45 1172.6 1803.22 1177.58 1800.77 1181.78C1798.32 1185.98 1794.95 1189.22 1790.66 1191.49C1786.37 1193.75 1781.45 1194.88 1775.89 1194.88C1769.7 1194.88 1764.26 1193.49 1759.58 1190.71C1754.92 1187.91 1751.28 1183.93 1748.65 1178.79C1746.05 1173.63 1744.75 1167.5 1744.75 1160.41C1744.75 1154.99 1745.51 1150.14 1747.04 1145.87C1748.6 1141.61 1750.76 1137.99 1753.54 1135.01C1756.32 1132.01 1759.58 1129.74 1763.32 1128.18C1767.07 1126.61 1771.13 1125.82 1775.53 1125.82C1779.25 1125.82 1782.72 1126.37 1785.94 1127.46C1789.15 1128.53 1792.01 1130.06 1794.5 1132.06C1797.02 1134.05 1799.09 1136.41 1800.71 1139.15C1802.33 1141.88 1803.39 1144.9 1803.89 1148.2H1791.48ZM1844.04 1193.96H1831.04L1854.7 1126.74H1869.74L1893.43 1193.96H1880.44L1862.48 1140.52H1861.96L1844.04 1193.96ZM1844.46 1167.6H1879.91V1177.38H1844.46V1167.6ZM1912.47 1136.95V1126.74H1966.1V1136.95H1945.32V1193.96H1933.24V1136.95H1912.47ZM1997.69 1193.96V1126.74H2041.41V1136.95H2009.87V1155.19H2039.15V1165.4H2009.87V1183.75H2041.67V1193.96H1997.69ZM2145.96 1126.74V1193.96H2133.78V1138.59H2133.39L2117.67 1148.63V1137.47L2134.37 1126.74H2145.96ZM2211.62 1126.74V1193.96H2199.44V1138.59H2199.05L2183.33 1148.63V1137.47L2200.04 1126.74H2211.62Z" fill="#1A3B48"/>
<path d="M1222.05 272.138L990.993 410.774" stroke="#1A3B48" stroke-width="15.404" stroke-linecap="round"/>
<path d="M1453.12 410.759L1222.05 272.138" stroke="#1A3B48" stroke-width="15.404" stroke-linecap="round"/>
<path d="M1304.21 277.273C1304.21 274.437 1306.51 272.138 1309.34 272.138H1373.53C1376.36 272.138 1378.66 274.437 1378.66 277.273V338.889C1378.66 341.725 1376.36 344.024 1373.53 344.024V344.024C1370.69 344.024 1368.39 341.725 1368.39 338.889V287.542C1368.39 284.706 1366.09 282.407 1363.26 282.407H1319.61C1316.78 282.407 1314.48 284.706 1314.48 287.542V297.811C1314.48 300.647 1312.18 302.946 1309.34 302.946V302.946C1306.51 302.946 1304.21 300.647 1304.21 297.811V277.273Z" fill="#1A3B48"/>
</svg>
