<svg width="21" height="21" viewBox="0 0 21 21" fill="none" xmlns="http://www.w3.org/2000/svg">
<path d="M20.3239 18.8647C20.4197 18.9605 20.4957 19.0743 20.5476 19.1995C20.5995 19.3246 20.6261 19.4588 20.6261 19.5943C20.6261 19.7298 20.5995 19.864 20.5476 19.9892C20.4957 20.1144 20.4197 20.2281 20.3239 20.3239C20.2281 20.4197 20.1144 20.4957 19.9892 20.5476C19.864 20.5995 19.7298 20.6261 19.5943 20.6261C19.4588 20.6261 19.3246 20.5995 19.1995 20.5476C19.0743 20.4957 18.9605 20.4197 18.8647 20.3239L10.3131 11.771L1.76143 20.3239C1.56793 20.5174 1.30548 20.6261 1.03182 20.6261C0.758167 20.6261 0.495718 20.5174 0.302214 20.3239C0.10871 20.1304 5.39442e-09 19.868 0 19.5943C-5.39442e-09 19.3207 0.10871 19.0582 0.302214 18.8647L8.85514 10.3131L0.302214 1.76143C0.10871 1.56793 -2.0389e-09 1.30548 0 1.03182C2.0389e-09 0.758167 0.10871 0.495718 0.302214 0.302214C0.495718 0.10871 0.758167 2.0389e-09 1.03182 0C1.30548 -2.0389e-09 1.56793 0.10871 1.76143 0.302214L10.3131 8.85514L18.8647 0.302214C19.0582 0.10871 19.3207 -5.39442e-09 19.5943 0C19.868 5.39442e-09 20.1304 0.10871 20.3239 0.302214C20.5174 0.495718 20.6261 0.758167 20.6261 1.03182C20.6261 1.30548 20.5174 1.56793 20.3239 1.76143L11.771 10.3131L20.3239 18.8647Z" fill="#F9F9F9" fill-opacity="0.976471"/>
</svg>
